<svg width="222" height="61" viewBox="0 0 222 61" fill="none" xmlns="http://www.w3.org/2000/svg">
<path d="M93.5729 14.3605H92.727C92.7053 13.5797 90.6232 10.3047 88.2591 10.3047C86.6758 10.3047 85.8082 11.0421 85.8082 12.3434C85.8082 13.3628 86.8493 14.2304 87.6735 14.6425C88.8881 15.2497 90.2111 15.857 91.5341 16.3993C93.5512 17.2234 94.7441 18.6983 94.7441 20.8021C94.7441 23.6434 92.5752 25.5303 89.6038 25.5303C87.9337 25.5303 86.871 24.7278 85.5696 24.7278C85.0708 24.7278 84.6587 24.8796 84.3984 25.27H83.596V20.1514H84.4418C84.4635 20.9973 87.0228 24.3157 89.6255 24.3157C91.2521 24.3157 92.3366 23.6434 92.3366 22.2119C92.3366 20.8238 91.1871 20.1948 90.2545 19.8044C88.8881 19.2405 87.6518 18.6332 86.3721 17.9392C84.5503 16.9632 83.4008 15.6185 83.4008 13.6448C83.4008 11.0638 85.3311 9.19854 88.2157 9.19854C89.6689 9.19854 90.5147 9.8709 91.7076 9.8709C92.098 9.8709 92.5752 9.80583 92.7921 9.4805H93.5729V14.3605ZM97.2557 11.1722C97.2557 10.1962 97.9497 9.58894 98.8824 9.58894C99.815 9.58894 100.487 10.1962 100.487 11.1722C100.487 12.1482 99.815 12.7772 98.8824 12.7772C97.9497 12.7772 97.2557 12.1482 97.2557 11.1722ZM100.336 23.2963C100.336 23.6434 101.246 24.4892 101.528 24.4892H101.962V25.27H95.9327V24.4892H96.3664C96.6701 24.4892 97.5593 23.6434 97.5593 23.2963V16.8547C97.5593 16.5294 96.6701 15.6618 96.3664 15.6618H95.9327V14.881H100.336V23.2963ZM104.234 16.8547C104.234 16.5077 103.388 15.6618 103.084 15.6618H102.651V14.881H106.425L106.837 17.1801C107.683 15.6185 108.485 14.6425 109.96 14.6425C110.567 14.6425 110.958 14.7075 111.435 14.881V17.5921H110.741C110.48 17.1367 110.047 16.7897 109.309 16.7897C107.726 16.7897 107.01 18.0693 107.01 18.3513V23.2963C107.01 23.6434 107.921 24.4892 108.203 24.4892H108.637V25.27H102.607V24.4892H103.041C103.345 24.4892 104.234 23.6434 104.234 23.2963V16.8547ZM119.22 9.4805V10.2613H118.569C118.265 10.2613 117.355 11.2373 117.355 11.5626V23.7301C117.355 23.8602 117.615 24.1856 117.723 24.1856H121.15C121.974 24.1856 125.293 20.6937 125.293 20.2165H126.16L125.206 25.27H112.323V24.4892H112.973C113.277 24.4892 114.166 23.5349 114.166 23.1879V11.5626C114.166 11.2373 113.255 10.2613 112.952 10.2613H112.301V9.4805H119.22ZM129.821 19.761C129.865 21.6263 131.014 23.4698 133.031 23.4698C134.702 23.4698 135.417 22.7758 136.09 21.6046H136.892C136.111 23.9904 134.636 25.5086 132.207 25.5086C128.867 25.5086 127.132 22.9927 127.132 20.1081C127.132 17.0065 129.214 14.6208 132.207 14.6425C134.962 14.6641 136.155 16.7463 136.306 18.4597L136.372 19.2405L129.821 19.761ZM133.791 18.4597C133.986 16.9849 133.704 15.6185 132.142 15.6185C130.299 15.6185 129.735 17.2451 129.778 18.785L133.791 18.4597ZM150.808 16.9198C150.787 16.5728 150.353 15.6618 150.071 15.6618H149.312V14.881H153.563V15.6618H153.129C152.89 15.6618 152.131 16.5728 151.936 16.9198L148.9 24.7929L147.88 25.5086L145.191 18.2645L142.545 24.7929L141.525 25.5086L138.381 16.9415C138.185 16.5945 137.448 15.6618 137.209 15.6618H136.776V14.881H142.762V15.6618H142.068C141.786 15.6618 141.33 16.5294 141.309 16.8981L142.74 21.366L144.627 16.6378L146.514 14.881L149.203 21.3443L150.808 16.9198ZM155.323 11.1722C155.323 10.1962 156.017 9.58894 156.95 9.58894C157.883 9.58894 158.555 10.1962 158.555 11.1722C158.555 12.1482 157.883 12.7772 156.95 12.7772C156.017 12.7772 155.323 12.1482 155.323 11.1722ZM158.403 23.2963C158.403 23.6434 159.314 24.4892 159.596 24.4892H160.03V25.27H154V24.4892H154.434C154.738 24.4892 155.627 23.6434 155.627 23.2963V16.8547C155.627 16.5294 154.738 15.6618 154.434 15.6618H154V14.881H158.403V23.2963ZM161.846 21.6697C161.846 22.3637 163.494 24.4242 165.62 24.4242C166.574 24.4242 167.203 24.0121 167.203 23.253C167.203 22.4505 166.422 21.995 165.663 21.713C164.861 21.4094 164.21 21.1274 163.386 20.737C161.955 20.0647 161.109 19.067 161.109 17.7223C161.109 15.8137 162.475 14.6425 164.536 14.6425C165.685 14.6425 166.531 15.163 167.225 15.163C167.485 15.163 167.702 15.0545 167.811 14.881H168.461V18.1127H167.767C167.767 17.4837 166.292 15.5968 164.427 15.5968C163.473 15.5968 162.974 16.0522 162.974 16.768C162.974 17.5271 163.755 17.8741 164.536 18.2211C165.316 18.5681 165.924 18.8284 166.748 19.1537C168.027 19.6526 169.199 20.7587 169.199 22.3203C169.199 24.294 167.745 25.5086 165.533 25.5086C164.232 25.5086 163.147 24.9013 162.475 24.9013C162.215 24.9013 161.955 25.0748 161.803 25.27H161.152V21.6697H161.846ZM108.972 36.0878C107.389 36.0878 106.434 36.8252 106.434 38.2567C106.434 39.5146 107.345 40.3822 108.733 40.881C110.273 42.4643 112.985 45.0019 115.349 47.0624C115.826 46.1297 116.021 45.2405 116.021 44.0476C116.021 42.5945 115.067 41.7269 113.635 41.6835V40.881H119.535V41.6835H118.927C118.624 41.6835 117.431 42.9198 117.431 43.3969C117.409 45.0887 116.997 46.3033 116.021 47.6697C116.975 48.5155 118.624 49.7952 119.578 50.4892H120.467V51.27H117.669C116.26 51.27 115.262 50.8579 114.069 49.8819C112.811 51.0098 111.228 51.6821 108.994 51.6821C106.131 51.6821 103.68 49.7735 103.68 46.9973C103.68 44.8718 104.786 43.1584 106.174 42.139C105.393 41.1413 104.96 40.2954 104.96 38.8423C104.96 36.6517 106.478 35.1552 108.95 35.1552C110.404 35.1552 111.401 35.8058 112.074 35.8058C112.421 35.8058 112.637 35.7408 112.811 35.4805H113.635V39.6665H112.811C112.811 38.7989 111.054 36.0878 108.972 36.0878ZM106.673 42.7463C105.957 43.5054 105.675 44.4163 105.675 45.8695C105.675 48.1251 108.018 50.1422 110.273 50.1422C111.531 50.1422 112.551 49.8386 113.375 49.318C110.967 47.3226 108.842 45.2839 106.673 42.7463ZM137.955 50.4892H138.605C138.909 50.4892 139.798 49.5349 139.798 49.1879V43.744H132.923V49.1879C132.923 49.5349 133.812 50.4892 134.116 50.4892H134.766V51.27H127.913V50.4892H128.563C128.867 50.4892 129.756 49.5349 129.756 49.1879V37.5626C129.756 37.2373 128.845 36.2613 128.542 36.2613H127.891V35.4805H134.788V36.2613H134.137C133.834 36.2613 132.923 37.2373 132.923 37.5626V42.3993H139.798V37.5626C139.798 37.2373 138.887 36.2613 138.584 36.2613H137.933V35.4805H144.808V36.2613H144.158C143.854 36.2613 142.943 37.2373 142.943 37.5626V49.1879C142.943 49.5349 143.832 50.4892 144.136 50.4892H144.787V51.27H137.955V50.4892ZM152.059 49.6C151.56 50.2723 150.259 51.4869 148.979 51.4869C147.266 51.4869 145.986 50.294 145.986 48.624C145.986 46.5635 148.025 45.8044 149.695 45.4574L151.886 45.0236L151.907 43.7873C151.929 42.4643 151.148 41.792 149.652 41.792C148.133 41.792 147.396 42.6378 147.895 44.4597H147.092L145.791 42.5945C146.463 41.7703 147.873 40.6425 150.302 40.6425C152.797 40.6425 154.618 41.7703 154.618 43.8307V49.2963C154.618 49.6434 155.464 50.4892 155.768 50.4892H156.202V51.27H152.233L152.059 49.6ZM151.907 45.9129L149.955 46.4334C148.936 46.7153 148.285 47.3226 148.285 48.3203C148.285 49.2096 148.893 49.8386 149.847 49.8386C150.671 49.8386 151.517 48.971 151.907 48.277V45.9129ZM156.738 40.881H160.664L161.033 42.9849C161.922 41.9221 162.876 40.6425 164.698 40.6425C166.13 40.6425 167.214 41.6185 167.496 42.8981C168.385 41.9004 169.426 40.6425 171.227 40.6425C172.918 40.6425 174.111 42.0956 174.111 43.7223V49.2963C174.111 49.6434 174.914 50.4892 175.196 50.4892H175.63V51.27H169.839V50.4892H170.272C170.576 50.4892 171.378 49.6434 171.378 49.2963V43.9609C171.378 43.115 170.923 42.5728 170.142 42.5728C169.101 42.5728 167.648 43.6789 167.583 44.3729V49.2963C167.583 49.6434 168.342 50.4892 168.624 50.4892H169.058V51.27H163.31V50.4892H163.744C164.048 50.4892 164.85 49.6434 164.85 49.2963V43.9609C164.85 43.115 164.395 42.5728 163.614 42.5728C162.551 42.5728 161.055 43.744 161.055 44.4163V49.2963C161.055 49.6434 161.814 50.4892 162.096 50.4892H162.529V51.27H156.738V50.4892H157.172C157.476 50.4892 158.322 49.6434 158.322 49.2963V42.8547C158.322 42.5077 157.476 41.6618 157.172 41.6618H156.738V40.881ZM177.407 37.1722C177.407 36.1962 178.101 35.5889 179.034 35.5889C179.966 35.5889 180.639 36.1962 180.639 37.1722C180.639 38.1482 179.966 38.7772 179.034 38.7772C178.101 38.7772 177.407 38.1482 177.407 37.1722ZM180.487 49.2963C180.487 49.6434 181.398 50.4892 181.68 50.4892H182.114V51.27H176.084V50.4892H176.518C176.822 50.4892 177.711 49.6434 177.711 49.2963V42.8547C177.711 42.5294 176.822 41.6618 176.518 41.6618H176.084V40.881H180.487V49.2963ZM187.162 49.2963C187.162 49.6434 188.073 50.4892 188.355 50.4892H188.788V51.27H182.759V50.4892H183.193C183.496 50.4892 184.385 49.6434 184.385 49.2963V37.3457C184.385 37.0204 183.496 36.2613 183.236 36.2613H182.759V35.4805C184.993 35.0901 187.162 34.5479 187.162 34.5479V49.2963ZM192.589 48.7758C192.589 49.3831 193.001 49.7518 193.587 49.7518C194.129 49.7518 194.823 49.4698 195.257 49.1445L195.734 49.8169C195.279 50.294 193.76 51.5086 192.372 51.5086C190.919 51.5086 189.813 50.641 189.813 49.1011V42.0305H188.23V41.2497C189.618 40.3171 190.832 39.211 191.83 38.0181H192.524V40.881H195.387V42.0305H192.589V48.7758ZM201.762 51.5303C198.921 51.5303 196.275 49.5132 196.275 46.0647C196.275 42.6161 198.921 40.6208 201.762 40.6208C204.604 40.6208 207.185 42.6161 207.185 46.0647C207.185 49.5132 204.604 51.5303 201.762 51.5303ZM201.784 50.3374C203.389 50.3374 204.17 49.3831 204.343 47.7347C204.452 46.7804 204.452 45.2839 204.343 44.3079C204.17 42.6812 203.367 41.6618 201.784 41.6618C200.201 41.6618 199.355 42.6378 199.181 44.2862C199.073 45.2405 199.073 46.737 199.181 47.713C199.355 49.3397 200.179 50.3374 201.784 50.3374ZM208.045 40.881H212.014L212.383 42.9849C213.272 41.9872 214.443 40.6425 216.265 40.6425C217.957 40.6425 219.193 42.0956 219.193 43.7223V49.2963C219.193 49.6434 219.996 50.4892 220.278 50.4892H220.712V51.27H214.834V50.4892H215.268C215.571 50.4892 216.417 49.6434 216.417 49.2963V43.9825C216.417 43.1367 215.962 42.5945 215.181 42.5945C214.118 42.5945 212.405 43.7657 212.405 44.438V49.2963C212.405 49.6434 213.207 50.4892 213.489 50.4892H213.923V51.27H208.045V50.4892H208.479C208.783 50.4892 209.629 49.6434 209.629 49.2963V42.8547C209.629 42.5077 208.783 41.6618 208.479 41.6618H208.045V40.881Z" fill="black"/>
<path d="M42.2207 21.9752C43.4967 24.5272 43.6976 27.1737 43.6385 28.1779L45.4107 29.9501C45.7651 29.1821 46.8639 27.5399 48.4234 27.1146C49.9829 26.6893 50.8454 27.1737 51.0817 27.469L51.2589 27.1146L51.6134 24.1019L51.4361 21.2664L50.0184 17.5448L48.7778 15.5953L47.7145 14.0004L44.3474 10.8104L40.4485 9.21545L38.3219 9.92433L36.5497 10.456L34.9548 10.2788L34.0687 9.92433H32.8281L31.7648 10.2788L30.5243 10.456L26.9799 12.2282L26.4482 12.9371C30.1698 11.6965 38.4991 12.7598 38.8536 12.9371C39.208 13.1143 41.3346 13.4687 42.2207 15.9498C42.9296 17.9346 42.5161 20.7938 42.2207 21.9752Z" fill="black" stroke="black" stroke-width="0.354438"/>
<path fill-rule="evenodd" clip-rule="evenodd" d="M36.5497 59.6803C34.6675 60.057 32.7214 60.2545 30.7298 60.2545C14.2711 60.2545 0.928711 46.7661 0.928711 30.1272C0.928711 13.4884 14.2711 0 30.7298 0C32.7214 0 34.6675 0.197516 36.5497 0.574229C38.432 0.197516 40.3781 0 42.3697 0C58.8284 0 72.1708 13.4884 72.1708 30.1272C72.1708 46.7661 58.8284 60.2545 42.3697 60.2545C40.3781 60.2545 38.432 60.057 36.5497 59.6803ZM41.0096 58.4141C52.4031 54.181 60.5309 43.1137 60.5309 30.1272C60.5309 17.1408 52.4031 6.07344 41.0096 1.84043C41.4603 1.81865 41.9137 1.80763 42.3697 1.80763C57.8409 1.80763 70.3827 14.4868 70.3827 30.1272C70.3827 45.7677 57.8409 58.4469 42.3697 58.4469C41.9137 58.4469 41.4603 58.4358 41.0096 58.4141ZM32.059 58.4026C31.6185 58.4234 31.1754 58.4339 30.7298 58.4339C15.2657 58.4339 2.7296 45.7606 2.7296 30.1272C2.7296 14.4939 15.2657 1.82059 30.7298 1.82059C31.1754 1.82059 31.6185 1.83112 32.059 1.85193C20.6817 6.09345 12.5686 17.1525 12.5686 30.1272C12.5686 43.102 20.6817 54.161 32.059 58.4026ZM36.5187 57.8282C23.8562 55.1081 14.3567 43.7392 14.3567 30.1272C14.3567 16.5153 23.8562 5.14638 36.5187 2.42629C49.2051 5.12232 58.73 16.5003 58.73 30.1272C58.73 43.7542 49.2051 55.1322 36.5187 57.8282Z" fill="black"/>
<path d="M48.4232 36.6844C47.1236 37.7477 44.7016 39.6971 44.7016 36.33L44.5244 35.6211" stroke="black" stroke-width="0.708876" stroke-linecap="round"/>
<path d="M34.6007 28.7095C34.8547 28.5825 34.8432 27.7824 34.7956 27.2773C34.7868 27.184 34.7076 27.1145 34.6139 27.1145C34.6051 27.1145 34.5963 27.1151 34.5876 27.1164L32.6521 27.3929C32.3466 27.4365 32.1196 27.6982 32.1196 28.0069C32.1196 28.31 32.3385 28.5694 32.6387 28.6119C33.3898 28.7185 34.3755 28.8221 34.6007 28.7095Z" fill="black" stroke="black" stroke-width="0.354438" stroke-linecap="round"/>
<path d="M21.1318 25.874C21.1318 24.031 21.9589 20.8528 22.3724 19.4942C22.9631 18.1946 24.4636 15.17 25.7395 13.4687C27.0155 11.7674 29.8156 10.5151 31.0561 10.1015C31.1743 10.2197 31.6232 10.3851 32.4739 10.1015C33.5372 9.74711 34.2461 9.56989 34.9549 10.1015C35.522 10.5269 38.7356 9.68804 40.2715 9.21545C41.8074 9.21545 45.7299 10.4914 49.1325 15.5953C52.5351 20.6993 51.968 25.6378 51.2591 27.469C50.373 26.1694 49.097 24.3145 51.0819 27.2918C53.0667 30.2691 50.0186 34.9122 48.2464 36.8616C48.0691 37.8068 47.7147 40.5123 47.7147 43.7732C47.7147 47.034 49.1325 50.8029 49.6641 51.9253C46.6514 55.6469 39.3854 58.1279 37.2588 58.3051C35.5575 58.4469 29.6384 56.2967 27.6889 55.2924L27.3345 50.6847V50.3303C26.2003 50.1885 25.4442 49.5623 25.2079 49.267L25.3851 47.672C25.0897 46.845 24.3927 45.0492 23.9674 44.4821C23.542 43.9149 22.9631 41.6465 22.7268 40.5832L22.5496 34.3806M21.1318 25.874C19.9504 26.1694 18.4027 26.7956 18.1191 26.9374C17.8356 27.0791 17.9419 27.8235 17.9419 27.8235C18.1191 28.3551 18.2963 28.7096 18.4736 29.064C18.6508 29.4184 19.2415 30.8953 19.5369 31.5451C19.8322 32.1358 20.0685 33.3172 20.7774 33.8489C21.5383 34.4195 22.3133 34.3806 22.5496 34.3806M21.1318 25.874C21.7816 25.9331 23.2939 26.2285 24.1446 26.9374C24.9952 27.6462 26.0349 28.8868 26.4484 29.4184M22.5496 34.3806C23.2585 33.9671 24.8889 32.7147 25.7395 31.0134L26.4484 29.4184M26.4484 29.4184L27.1573 27.8235C27.5117 27.6462 28.4333 27.2918 29.2839 27.2918C30.3472 27.2918 34.6005 28.5323 34.9549 28.8868C35.3094 29.2412 33.8916 29.7729 33.7144 30.659C33.5372 31.5451 33.8916 33.6717 33.0055 34.2033C32.1194 34.735 31.4106 35.6211 29.8156 34.9122C28.5396 34.3451 27.6299 32.6674 27.3345 31.8995L26.4484 29.4184Z" stroke="black" stroke-width="0.886095"/>
<path d="M27.1572 29.0639C27.1572 28.7804 27.3935 28.2369 27.5116 28.0006H26.98L26.8027 28.7095C26.9209 28.9458 27.1572 29.3475 27.1572 29.0639Z" fill="black"/>
<path d="M24.7766 41.776L24.1509 41.5972C23.8718 41.5175 23.5714 41.5859 23.3543 41.7784L23.3354 41.7953C23.0769 42.0246 22.9916 42.3922 23.1226 42.7119L23.4605 43.5363C23.5637 43.7881 23.9064 43.8223 24.0573 43.5959C24.2437 43.3162 24.185 43.0366 24.0875 42.7827C23.9399 42.3986 24.2277 41.8101 24.4117 42.1781C24.4743 42.3032 24.5852 42.4329 24.7047 42.549C24.9558 42.7926 25.3072 42.8885 25.657 42.8806C26.3396 42.8653 27.2057 42.8192 27.4245 42.7098C27.6706 42.5867 28.4688 42.5438 28.9842 42.5346C29.0523 42.5334 29.0784 42.4496 29.0205 42.4138C28.7248 42.2316 28.2365 42.0009 27.7789 42.0009C27.2542 42.0009 25.8798 41.8997 25.1158 41.8378C25.0008 41.8285 24.8875 41.8077 24.7766 41.776Z" fill="black"/>
<path d="M24.0573 43.5959C24.2437 43.3162 24.185 43.0366 24.0875 42.7827C23.9399 42.3986 24.2277 41.8101 24.4117 42.1781V42.1781C24.4743 42.3032 24.5852 42.4329 24.7047 42.549C24.9558 42.7926 25.3072 42.8885 25.657 42.8806C26.3396 42.8653 27.2057 42.8192 27.4245 42.7098C27.6706 42.5867 28.4688 42.5438 28.9842 42.5346C29.0523 42.5334 29.0784 42.4496 29.0205 42.4138C28.7248 42.2316 28.2365 42.0009 27.7789 42.0009C27.2542 42.0009 25.8798 41.8997 25.1158 41.8378C25.0008 41.8285 24.8875 41.8077 24.7766 41.776L24.1509 41.5972C23.8718 41.5175 23.5714 41.5859 23.3543 41.7784L23.3354 41.7953C23.0769 42.0246 22.9916 42.3922 23.1226 42.7119L23.4605 43.5363C23.5637 43.7881 23.9064 43.8223 24.0573 43.5959V43.5959ZM24.0573 43.5959C23.8375 43.9256 23.7029 43.5959 23.7029 44.6592" stroke="black" stroke-width="0.354438"/>
<path d="M24.6169 40.1268C24.0935 39.8299 23.8399 39.9696 23.7326 40.1833C23.6502 40.3474 23.539 40.5164 23.3602 40.5586C23.1216 40.615 22.9924 40.8759 23.088 41.1017C23.1882 41.3384 23.483 41.4253 23.6927 41.2767L23.8223 41.1848C23.9626 41.0854 24.0459 40.9242 24.0459 40.7523V40.6665C24.0459 40.5859 24.0856 40.5392 24.1317 40.5137C24.1949 40.4786 24.2713 40.4976 24.3402 40.5193L24.8073 40.6665C25.2514 40.7864 26.1778 40.9903 26.33 40.8464C26.4477 40.7352 26.6485 40.6885 26.7924 40.6729C26.8642 40.6652 26.9363 40.6771 27.0045 40.701C27.2151 40.7746 27.5339 40.9047 27.6625 41.0263C27.8036 41.1597 29.9168 41.8182 31.1853 42.2004C31.3674 42.2553 31.5195 42.3803 31.6084 42.5484L31.6597 42.6455C31.7866 42.8853 32.1166 43.4371 32.4211 43.7249C32.7104 43.9983 32.8926 43.535 32.958 43.1424C32.967 43.0885 32.9793 43.0417 32.9922 43.0053C33.0556 42.7654 33.1444 42.2137 32.9922 41.9258C32.8399 41.638 31.7866 40.8464 31.2791 40.4866L28.6142 39.0473C28.1066 38.8074 27.1676 38.2557 27.4721 37.9679C27.7502 37.705 28.4728 37.6222 28.8861 37.6098C28.9583 37.6076 29.0301 37.5974 29.0983 37.5736C29.3089 37.4999 29.6277 37.3698 29.7563 37.2482C30.1446 36.8812 30.6793 36.6063 30.9798 37.0481L31.8501 38.3277C31.3425 37.4881 30.2892 35.737 30.137 35.4492C29.9981 35.1867 29.6377 35.1037 29.431 35.0911C29.3941 35.0889 29.3575 35.0922 29.321 35.0979C28.5546 35.2187 27.3413 35.4098 28.2335 35.2693C28.8927 35.1654 29.3273 35.2426 29.5659 35.3388C29.6996 35.3926 29.7737 35.5243 29.7951 35.6668C29.8456 36.0015 29.8782 36.478 29.7563 36.7085C29.5659 37.0683 28.8045 37.4282 28.6142 37.4282C28.4997 37.4282 28.378 37.2247 28.2977 37.0473C28.2513 36.9447 28.1914 36.8459 28.092 36.7928C27.8664 36.6723 27.4178 36.5286 26.7107 36.5286C25.7971 36.5286 25.5687 36.7685 25.5687 36.8884C25.5687 37.0084 25.6067 37.2482 25.759 37.2482C25.8809 37.2482 26.1736 37.1714 26.3832 37.11C26.474 37.0833 26.5688 37.0725 26.6629 37.0832C27.3056 37.1562 28.2281 37.3408 27.6625 37.6081C27.2583 37.7991 26.4966 37.7894 25.8444 37.7262C25.4022 37.6834 24.9709 38.0343 24.7338 38.41C24.4923 38.7926 24.1257 39.128 23.8107 39.362C23.6094 39.5115 23.3587 39.8285 23.564 39.9723C23.5902 39.9906 23.6234 39.9864 23.6652 39.9469C23.8555 39.7669 24.2362 39.587 24.4266 39.587C24.5405 39.587 24.7326 39.7213 24.8753 39.8392C24.958 39.9075 25.0504 39.9653 25.1557 39.9857C25.3953 40.0321 25.7793 40.0604 26.1397 39.9469C26.5965 39.8029 27.0914 39.8869 27.2818 39.9469C27.4087 40.0068 28.0812 40.3067 29.7563 41.0263C30.7499 41.4532 31.2569 41.7324 31.4916 41.9014C31.6386 42.0072 31.559 42.096 31.3865 42.0409C30.4952 41.7567 27.9462 40.6207 27.2818 40.3067C26.7425 40.0518 26.3624 40.1542 26.1943 40.2643C26.1557 40.2895 26.1206 40.3201 26.0786 40.3392C25.8442 40.4459 25.3092 40.5194 24.6169 40.1268Z" fill="black" stroke="black" stroke-width="0.177219"/>
<path d="M25.5622 44.6592C25.6933 44.7904 26.196 44.8381 26.6985 44.8515C27.1091 44.8625 27.461 45.558 27.6888 45.8998C27.9723 46.3251 29.3428 46.3133 29.9926 46.2542C29.461 46.3133 28.2913 46.4314 27.866 46.4314C27.455 46.4314 28.1141 47.4243 28.5321 47.9709C28.5604 48.008 28.5839 48.0483 28.6126 48.0851C28.7978 48.3219 29.4425 48.642 30.8787 48.3808C32.3844 48.1071 33.5707 47.3707 34.023 47.0012C34.0538 46.9761 34.0858 46.953 34.1194 46.9318C34.6988 46.5668 35.5949 45.71 35.006 44.902C34.9736 44.8576 34.9322 44.8197 34.8886 44.7862C34.8453 44.753 34.8047 44.7211 34.7667 44.6905C34.4421 44.429 34.6038 44.1601 35.0167 44.2172C35.617 44.3002 36.3235 44.4281 36.7512 44.5926C36.8539 44.6322 37.0207 44.6421 36.961 44.5496C36.9486 44.5304 36.9301 44.508 36.9042 44.482C36.8108 44.3887 36.2005 44.1878 35.6088 44.0109C35.1803 43.8828 35.0878 43.4534 35.5341 43.423C35.5754 43.4202 35.6185 43.4187 35.6636 43.4187C36.118 43.4187 36.8303 43.6462 37.3082 43.8279C37.5031 43.9019 37.7111 43.8196 37.54 43.7005C37.4268 43.6217 37.2294 43.5271 36.9042 43.4187C36.7727 43.3749 36.6536 43.3361 36.5461 43.3019C36.1733 43.1834 35.9814 42.5326 36.3725 42.5326C36.6358 42.5326 37.2252 42.7364 37.5445 42.8601C37.5903 42.8778 37.6336 42.9008 37.6745 42.928L37.8024 43.0133C38.0141 43.1544 38.3004 43.0766 38.1082 42.9099C38.039 42.8499 37.9367 42.783 37.7903 42.7098C37.6435 42.6364 37.5015 42.5694 37.3686 42.5093C36.9554 42.3225 36.7875 41.7313 37.2359 41.6637C37.4053 41.6381 37.5935 41.6761 37.7903 41.8237C38.1447 42.0896 38.3792 42.2308 38.5196 42.2993C38.6185 42.3476 38.7676 42.3348 38.766 42.2248C38.7646 42.1304 38.6627 41.9941 38.3219 41.8237C37.9285 41.627 37.7333 40.7522 38.1344 40.9327L38.1447 40.9376C38.3552 41.0429 38.6438 41.2197 38.851 41.3522C38.9689 41.4276 39.1927 41.5007 39.1873 41.3608C39.1852 41.3064 39.1433 41.2274 39.0308 41.1148C38.9656 41.0497 38.8992 40.9957 38.8341 40.9513C38.5654 40.7679 38.1719 40.4322 38.4446 40.2548C38.5298 40.1994 38.6601 40.1804 38.8536 40.2287C39.2483 40.3274 39.4369 40.4604 39.5152 40.5322C39.5494 40.5636 39.5616 40.5909 39.602 40.6138C39.7646 40.7059 39.6681 40.3275 39.5163 40.2185C39.5053 40.2107 39.4943 40.203 39.4833 40.1953C39.1612 39.9729 38.9194 39.4541 39.2979 39.3541C39.3259 39.3467 39.355 39.3426 39.3852 39.3426C39.5451 39.3426 39.7125 39.4553 39.8493 39.5854C40.0211 39.7487 40.3258 39.807 40.182 39.6186C40.1594 39.589 40.1304 39.5562 40.0941 39.5199C40.0648 39.4906 40.0353 39.4623 40.0057 39.4351C39.7063 39.1592 39.5098 38.4566 39.9169 38.4566C40.0145 38.4566 40.2296 38.6245 40.412 38.7869C40.5524 38.912 40.7346 39.0102 40.6977 38.8258C40.6827 38.7511 40.5987 38.6058 40.5404 38.5568C40.4359 38.4689 40.288 38.36 40.154 38.2653C40.0242 38.1735 39.9884 37.9949 40.0766 37.8626C40.1773 37.7115 40.3911 37.6905 40.5282 37.8097C40.7003 37.9593 40.8902 38.1021 40.9802 38.1021C41.1571 38.1021 41.0741 37.8624 40.9326 37.7563L40.697 37.5796C40.5576 37.475 40.5242 37.2798 40.6208 37.1348C40.7214 36.9839 40.9253 36.9431 41.0762 37.0437L41.2407 37.1534C41.2953 37.1898 41.3681 37.1826 41.4145 37.1362C41.4683 37.0824 41.4683 36.9952 41.4145 36.9414L41.1837 36.7107C41.0654 36.5923 41.047 36.4069 41.1399 36.2676C41.2474 36.1063 41.4654 36.0627 41.6268 36.1703L41.7825 36.274C41.8312 36.3065 41.8961 36.3001 41.9375 36.2587C41.9924 36.2039 41.9834 36.1125 41.9211 36.0664C41.7395 35.9317 41.5119 35.7347 41.5119 35.621C41.5119 35.5334 41.6022 35.396 41.6991 35.276C41.7861 35.1683 41.9456 35.1687 42.0435 35.2666L42.1321 35.3552C42.1811 35.4042 42.2604 35.4042 42.3093 35.3552C42.3583 35.3063 42.3582 35.227 42.3121 35.1755C42.1917 35.041 42.0435 34.8472 42.0435 34.735C42.0435 34.6271 42.1803 34.444 42.2978 34.3105C42.3514 34.2497 42.4444 34.2498 42.5018 34.3071L42.6271 34.4324C42.6733 34.4787 42.7524 34.4459 42.7524 34.3805C42.7524 34.3214 42.717 34.1679 42.5752 34.0261C42.4757 33.9266 42.5449 33.705 42.6358 33.5205C42.6894 33.4116 42.8324 33.3972 42.9182 33.483L42.944 33.5088C43.0241 33.5889 43.1592 33.567 43.2098 33.4657C43.2508 33.3837 43.2176 33.284 43.1356 33.243L43.1016 33.226C43.005 33.1777 42.963 33.063 42.999 32.9612C43.3314 32.0221 43.5285 30.2449 43.6102 29.1413C43.6299 28.8761 43.7906 28.6408 44.036 28.5383C45.1321 28.0805 46.6734 27.5501 46.2968 28.1778C45.7651 29.0639 44.7018 32.4311 44.5246 32.9628C44.3828 33.3881 43.8748 37.2751 43.6385 39.1654C43.2841 40.7013 42.2916 43.8795 41.1574 44.3048C40.0232 44.7301 37.4949 46.6086 36.3725 47.4947C35.4864 48.2036 33.3952 49.7277 32.1192 50.153C30.8938 50.5615 28.8074 50.5668 27.8068 50.5142C27.7282 50.5101 27.6517 50.492 27.579 50.4617L25.8227 49.7299C25.6554 49.6602 25.5191 49.53 25.4559 49.3601C25.2485 48.8025 25.0777 48.0264 25.5622 48.0264C26.271 48.0264 26.271 47.4947 26.4482 47.3175C26.5716 47.1942 26.525 46.7042 26.4719 46.3844C26.4576 46.298 26.4243 46.2166 26.3775 46.1426C25.9551 45.4744 25.2941 44.3912 25.5622 44.6592Z" fill="black" stroke="black" stroke-width="0.496213"/>
<path d="M18.6507 27.2918C18.2254 27.5753 18.5916 28.8277 18.6507 29.4184L18.4735 29.5956L17.7646 28.0007L17.5874 27.2918L18.8279 26.4057L21.1318 25.874L23.6129 26.5829L25.5623 28.1779L26.2711 29.5956L24.6762 32.6083C24.0854 33.14 22.7268 34.2388 22.0179 34.3805C21.309 34.5223 20.3048 33.4944 19.8913 32.9628V32.4311C19.8913 32.4311 20.0685 31.2835 20.0685 29.7728C20.0685 28.2622 19.8913 27.1146 19.8913 27.1146C19.655 27.0555 19.076 27.0082 18.6507 27.2918Z" fill="black" stroke="black" stroke-width="0.0354438"/>
<path d="M27.5116 31.3678C27.3698 30.8007 27.2162 29.4184 27.1571 28.7095L26.9799 28.3551L26.4482 29.2412L27.3343 31.7222L27.866 33.14L29.1065 34.5577L30.5243 35.2666L31.942 34.7349L33.1826 34.0261L33.537 32.6083L33.8914 30.3045L34.9548 29.2412L34.6003 28.7095L29.461 27.2917L28.5749 27.6462C28.7166 30.0564 28.6339 32.5492 28.5749 33.4944C28.2795 33.0218 27.6533 31.9349 27.5116 31.3678Z" fill="black"/>
<path d="M46.2969 27.8235L44.3475 28.0007L35.1822 28.7057L34.4232 28.8868C34.3051 29.3003 34.2814 29.9856 35.1321 29.4185C35.9827 28.8514 41.0394 28.4733 43.4614 28.3551L43.6386 28.7096C44.4656 28.5324 46.1551 28.1425 46.2969 28.0007C46.4387 27.8589 46.356 27.8235 46.2969 27.8235Z" fill="black"/>
<path d="M35.1321 28.7096L35.1822 28.7057M35.1822 28.7057L44.3475 28.0007L46.2969 27.8235C46.356 27.8235 46.4387 27.8589 46.2969 28.0007C46.1551 28.1425 44.4656 28.5324 43.6386 28.7096L43.4614 28.3551C41.0394 28.4733 35.9827 28.8514 35.1321 29.4185C34.2814 29.9856 34.3051 29.3003 34.4232 28.8868L35.1822 28.7057Z" stroke="black" stroke-width="0.354438"/>
<path d="M29.638 25.3424C29.4962 24.7753 30.0515 24.3972 30.3469 24.2791L31.233 24.1018C32.1191 23.9246 34.1394 23.6411 35.1318 23.9246C36.1242 24.2082 36.963 24.8698 37.2584 25.1651C38.1445 26.1694 39.5977 27.9652 38.3217 27.1146C37.0458 26.2639 35.4271 25.6968 34.7773 25.5196C34.1275 25.4605 32.6153 25.4487 31.7646 25.874C30.914 26.2993 30.465 26.2875 30.3469 26.2285C30.1696 26.1694 29.7798 25.9095 29.638 25.3424Z" fill="black" stroke="black" stroke-width="0.354438"/>
<path d="M24.3433 37.2186L24.0436 36.9224C23.8033 36.6849 23.7546 36.3047 23.8944 35.9971C24.3692 34.9518 25.1729 32.7939 25.5506 31.5404L25.8946 29.7662" stroke="black" stroke-width="0.673432" stroke-linecap="round"/>
<path d="M26.5379 29.5373L25.9636 29.527C26.0879 29.2249 26.2588 27.8486 26.2725 27.1591L26.1687 26.4269" stroke="black" stroke-width="0.673432" stroke-linecap="round"/>
<path d="M25.0304 25.6968C24.8886 26.1221 24.0261 26.3466 23.6126 26.4057L22.3721 27.1145C21.7814 26.5238 20.7771 25.2715 21.486 24.9879C22.1949 24.7043 23.7898 24.7516 24.4987 24.8107C24.735 24.9288 25.1722 25.2715 25.0304 25.6968Z" fill="black" stroke="black" stroke-width="0.531657"/>
<path d="M48.2103 29.0864C48.4054 29.4369 48.8541 30.2429 49.0882 30.6634C49.2638 30.979 49.217 32.0119 49.1362 32.8436C49.0908 33.3116 48.8407 33.7324 48.4658 34.0161L47.9207 34.4285C47.769 34.5434 47.6394 34.6842 47.5169 34.8298C47.3328 35.049 47.0753 35.298 46.8593 35.3385C46.7898 35.3515 46.7193 35.33 46.6506 35.2856C46.1519 34.9632 46.3236 34.2149 46.6597 33.7253L46.8838 33.3988" stroke="black" stroke-width="0.708876" stroke-linecap="round"/>
<path d="M53.9175 37.3932C52.8749 37.2629 51.8523 34.9263 51.3727 33.4944M50.5503 41.292C51.3493 40.2266 51.1685 35.742 50.9477 33.2433C50.9342 33.0895 51.121 33.0018 51.2301 33.1109V33.1109C51.2492 33.13 51.2633 33.1535 51.2712 33.1792C51.3016 33.2779 51.3355 33.3834 51.3727 33.4944M51.3727 33.4944C51.6302 35.0303 52.1453 38.2084 52.1453 38.6338" stroke="black" stroke-width="0.708876" stroke-linecap="round"/>
<path d="M50.5501 33.8489C50.1956 35.2666 49.4159 38.2439 49.1323 38.811" stroke="black" stroke-width="0.708876" stroke-linecap="round"/>
<path d="M31.5879 27.469C32.1786 26.9373 33.9981 26.2993 36.55 28.0006" stroke="black" stroke-width="0.708876" stroke-linecap="round"/>
</svg>
